<svg xmlns="http://www.w3.org/2000/svg" viewBox="0 0 40 40" role="img" aria-labelledby="title description">
  <title id="title">AI Sales Companion</title>
  <desc id="description">A conversation bubble with rising bars, representing customer conversations that grow a business.</desc>
  <defs>
    <linearGradient id="gradient" x1="5" y1="4" x2="35" y2="36" gradientUnits="userSpaceOnUse">
      <stop stop-color="#2563EB"/>
      <stop offset=".55" stop-color="#4F46E5"/>
      <stop offset="1" stop-color="#8B5CF6"/>
    </linearGradient>
    <linearGradient id="shine" x1="10" y1="8" x2="30" y2="32" gradientUnits="userSpaceOnUse">
      <stop stop-color="#fff" stop-opacity=".28"/>
      <stop offset="1" stop-color="#fff" stop-opacity="0"/>
    </linearGradient>
  </defs>
  <rect width="40" height="40" rx="12" fill="url(#gradient)"/>
  <path d="M7 15.5C7 10.8 10.8 7 15.5 7h9C29.2 7 33 10.8 33 15.5v6c0 4.7-3.8 8.5-8.5 8.5h-7.2l-6.8 4.5V29A8.5 8.5 0 0 1 7 22.1v-6.6Z" fill="url(#shine)"/>
  <path d="M11 25.5v-10a4 4 0 0 1 4-4h10a4 4 0 0 1 4 4v7a4 4 0 0 1-4 4h-8l-6 4v-5Z" fill="none" stroke="#fff" stroke-width="2.3" stroke-linecap="round" stroke-linejoin="round"/>
  <path d="M16 21v-2M20 21v-4.5M24 21v-7" fill="none" stroke="#fff" stroke-width="2.3" stroke-linecap="round"/>
  <circle cx="30.5" cy="9.5" r="2.5" fill="#A5F3FC"/>
</svg>
