<svg width="1400" height="900" viewBox="0 0 1400 900" fill="none" xmlns="http://www.w3.org/2000/svg">
  <rect width="1400" height="900" rx="56" fill="#FAFAF7"/>
  <circle cx="1180" cy="138" r="150" fill="#ECFDF3"/>
  <circle cx="163" cy="736" r="210" fill="#F4F4F0"/>
  <path d="M132 214C132 174.235 164.235 142 204 142H694C733.765 142 766 174.235 766 214V612C766 651.765 733.765 684 694 684H204C164.235 684 132 651.765 132 612V214Z" fill="white" stroke="#E7E5E4" stroke-width="2"/>
  <path d="M204 234C204 214.118 220.118 198 240 198H562C581.882 198 598 214.118 598 234V302C598 321.882 581.882 338 562 338H240C220.118 338 204 321.882 204 302V234Z" fill="#F7F7F3"/>
  <circle cx="250" cy="268" r="34" fill="#E5E7EB"/>
  <path d="M304 246H508" stroke="#D6D3D1" stroke-width="12" stroke-linecap="round"/>
  <path d="M304 286H550" stroke="#D6D3D1" stroke-width="12" stroke-linecap="round"/>
  <path d="M312 380C312 360.118 328.118 344 348 344H640C659.882 344 676 360.118 676 380V452C676 471.882 659.882 488 640 488H348C328.118 488 312 471.882 312 452V380Z" fill="#06C755"/>
  <path d="M366 389H604" stroke="white" stroke-opacity=".55" stroke-width="10" stroke-linecap="round"/>
  <path d="M366 425H560" stroke="white" stroke-opacity=".55" stroke-width="10" stroke-linecap="round"/>
  <circle cx="710" cy="415" r="39" fill="#06C755"/>
  <rect x="688" y="399" width="44" height="30" rx="13" fill="white"/>
  <circle cx="702" cy="414" r="4" fill="#06C755"/>
  <circle cx="719" cy="414" r="4" fill="#06C755"/>
  <path d="M711 388V399" stroke="white" stroke-width="5" stroke-linecap="round"/>
  <circle cx="711" cy="384" r="4" fill="white"/>
  <path d="M204 538C204 518.118 220.118 502 240 502H562C581.882 502 598 518.118 598 538V606C598 625.882 581.882 642 562 642H240C220.118 642 204 625.882 204 606V538Z" fill="#F7F7F3"/>
  <circle cx="250" cy="572" r="34" fill="#E5E7EB"/>
  <path d="M304 550H512" stroke="#D6D3D1" stroke-width="12" stroke-linecap="round"/>
  <path d="M304 590H530" stroke="#D6D3D1" stroke-width="12" stroke-linecap="round"/>
  <path d="M824 148C824 118.177 848.177 94 878 94H1254C1283.82 94 1308 118.177 1308 148V414C1308 443.823 1283.82 468 1254 468H878C848.177 468 824 443.823 824 414V148Z" fill="white" stroke="#E7E5E4" stroke-width="2"/>
  <rect x="872" y="140" width="108" height="108" rx="24" fill="#F5F5F4"/>
  <rect x="1012" y="140" width="108" height="108" rx="24" fill="#EEF4EC"/>
  <rect x="1152" y="140" width="108" height="108" rx="24" fill="#F5F5F4"/>
  <rect x="872" y="292" width="108" height="108" rx="24" fill="#F5F5F4"/>
  <rect x="1012" y="292" width="108" height="108" rx="24" fill="#F5F5F4"/>
  <rect x="1152" y="292" width="108" height="108" rx="24" fill="#EEF4EC"/>
  <path d="M898 267H948" stroke="#D6D3D1" stroke-width="8" stroke-linecap="round"/>
  <path d="M1038 267H1088" stroke="#D6D3D1" stroke-width="8" stroke-linecap="round"/>
  <path d="M1178 267H1228" stroke="#D6D3D1" stroke-width="8" stroke-linecap="round"/>
  <path d="M898 419H948" stroke="#D6D3D1" stroke-width="8" stroke-linecap="round"/>
  <path d="M1038 419H1088" stroke="#D6D3D1" stroke-width="8" stroke-linecap="round"/>
  <path d="M1178 419H1228" stroke="#D6D3D1" stroke-width="8" stroke-linecap="round"/>
  <path d="M905 220C921 170 954 169 966 220" stroke="#A78B7A" stroke-width="12" stroke-linecap="round"/>
  <rect x="903" y="197" width="66" height="52" rx="14" fill="#D6B59F"/>
  <path d="M1042 194H1090L1104 244H1028L1042 194Z" fill="#9BAF88"/>
  <path d="M1192 166C1209 183 1218 207 1214 240H1174C1170 207 1178 183 1192 166Z" fill="#7EA16B"/>
  <rect x="904" y="322" width="48" height="72" rx="10" fill="#B7B1A8"/>
  <rect x="914" y="306" width="28" height="28" rx="10" fill="#111827"/>
  <path d="M1050 358C1062 314 1094 314 1106 358" stroke="#C8A56C" stroke-width="11" stroke-linecap="round"/>
  <path d="M1032 354H1124L1112 400H1044L1032 354Z" fill="#E2C488"/>
  <path d="M1186 326H1224V398H1170L1186 326Z" fill="#D8C7AA"/>
  <path d="M878 640C878 610.177 902.177 586 932 586H1258C1287.82 586 1312 610.177 1312 640V778C1312 807.823 1287.82 832 1258 832H932C902.177 832 878 807.823 878 778V640Z" fill="white" stroke="#E7E5E4" stroke-width="2"/>
  <rect x="918" y="636" width="354" height="128" rx="18" fill="#F3F4F6"/>
  <path d="M918 683H1272" stroke="#D1D5DB" stroke-width="16"/>
  <rect x="980" y="696" width="112" height="68" fill="white"/>
  <rect x="1114" y="696" width="112" height="68" fill="white"/>
  <circle cx="1252" cy="628" r="58" fill="#06C755"/>
  <path d="M1227 636H1277" stroke="white" stroke-width="10" stroke-linecap="round"/>
  <path d="M1236 636V672H1268V636" stroke="white" stroke-width="10" stroke-linecap="round" stroke-linejoin="round"/>
  <path d="M1231 617H1273L1284 636H1220L1231 617Z" fill="white"/>
  <path d="M714 680C762 614 846 576 930 576" stroke="#86EFAC" stroke-width="3" stroke-dasharray="10 12"/>
  <path d="M748 246C806 204 856 190 906 200" stroke="#86EFAC" stroke-width="3" stroke-dasharray="10 12"/>
  <circle cx="760" cy="212" r="7" fill="#06C755"/>
  <circle cx="782" cy="196" r="4" fill="#86EFAC"/>
  <path d="M786 112L797 139L824 150L797 161L786 188L775 161L748 150L775 139L786 112Z" fill="#22C55E"/>
  <path d="M124 128C157.137 128 184 154.863 184 188C184 221.137 157.137 248 124 248C90.8629 248 64 221.137 64 188C64 154.863 90.8629 128 124 128Z" fill="#06C755"/>
  <path d="M94 180C94 165.641 105.641 154 120 154H130C144.359 154 156 165.641 156 180C156 194.359 144.359 206 130 206H116L98 220L104 202C97.8364 197.344 94 189.933 94 180Z" fill="white"/>
  <rect x="524" y="664" width="286" height="170" rx="28" fill="#E7E5E4"/>
  <rect x="550" y="688" width="234" height="122" rx="18" fill="#FAFAF9"/>
  <path d="M494 828H840" stroke="#D6D3D1" stroke-width="20" stroke-linecap="round"/>
</svg>
